<?xml version="1.0" encoding="UTF-8"?>
<svg id="b" data-name="Layer 2" xmlns="http://www.w3.org/2000/svg" width="136.042" height="219.931" viewBox="0 0 136.042 219.931">
  <g id="c" data-name="Layer 1">
    <g>
      <path d="m77.876,219.931c-6.734-1.54-13.841-1.13-19.619,0C45.524,183.767,25.014,146.98,0,109.832c7.998,2.947,15.611,3.37,22.647,0,3.313,31.871,26.683,59.134,43.14,79.385,13.96-18.001,28.563-50.307,30.192-79.385,11.175,3.659,25.095,2.71,40.063,0-30.893,32.325-53.686,67.562-58.166,110.099Z" fill="#ffe9ee"/>
      <path d="m64.182,195.624C35.268,112.738,23.025,54.528,68.021,0c16.645,6.117,33.613,4.523,61.67,0C56.94,50.379,62.263,101.321,74.223,187.641l-10.041,7.983Z" fill="#ffe9ee"/>
    </g>
  </g>
</svg>